<svg xmlns="http://www.w3.org/2000/svg" viewBox="0 0 340 340" width="340" height="340">
  <rect x="0" y="0" width="340" height="340" rx="16" ry="16" fill="#3D3D3D"/>

  <g transform="translate(60, 90)">
    <path d="M 0 160 L 0 0 L 40 0 L 110 90 L 180 0 L 220 0 L 220 160 L 180 160 L 180 60 L 120 135 L 100 135 L 40 60 L 40 160 Z" fill="#F5E6D8"/>
  </g>

  <g transform="translate(190, 180)" shape-rendering="crispEdges">
    <rect x="0"   y="0"  width="30" height="30" fill="#1A1A1A"/>
    <rect x="90"  y="0"  width="30" height="30" fill="#1A1A1A"/>
    <rect x="15"  y="15" width="15" height="15" fill="#F5A5B8"/>
    <rect x="90"  y="15" width="15" height="15" fill="#F5A5B8"/>
    <rect x="0"   y="30" width="120" height="30" fill="#1A1A1A"/>
    <rect x="30"  y="45" width="15"  height="15" fill="#FFFFFF"/>
    <rect x="75"  y="45" width="15"  height="15" fill="#FFFFFF"/>
    <rect x="0"   y="60" width="120" height="30" fill="#FFFFFF"/>
    <rect x="0"   y="60" width="15" height="15" fill="#1A1A1A"/>
    <rect x="105" y="60" width="15" height="15" fill="#1A1A1A"/>
    <rect x="30"  y="60" width="15" height="15" fill="#0A0A0A"/>
    <rect x="75"  y="60" width="15" height="15" fill="#0A0A0A"/>
    <rect x="30"  y="90" width="60" height="30" fill="#FFFFFF"/>
    <rect x="15"  y="90" width="15" height="15" fill="#1A1A1A"/>
    <rect x="90"  y="90" width="15" height="15" fill="#1A1A1A"/>
    <rect x="52"  y="96" width="16" height="10" fill="#0A0A0A"/>
  </g>
</svg>
